<svg width="100%" height="100%" viewBox="0 0 1600 1177" version="1.1" xmlns="http://www.w3.org/2000/svg" xmlns:xlink="http://www.w3.org/1999/xlink" xml:space="preserve">
    <g transform="matrix(3.92237,0,0,3.92237,-3890.738581,-4632.720195)">
        <path d="M1297.352,1481.102L1094.436,1481.102C1059.436,1481.102 1033.602,1474.158 1016.936,1460.269C1000.269,1446.38 991.936,1424.991 991.936,1396.102L991.936,1266.519C991.936,1237.352 1000.269,1215.825 1016.936,1201.936C1033.602,1188.047 1059.436,1181.102 1094.436,1181.102L1297.352,1181.102C1332.352,1181.102 1358.186,1188.047 1374.852,1201.936C1391.519,1215.825 1399.852,1237.213 1399.852,1266.102L1399.852,1396.102C1399.852,1424.991 1391.519,1446.38 1374.852,1460.269C1358.186,1474.158 1332.352,1481.102 1297.352,1481.102ZM1151.102,1261.519L1112.352,1261.519C1095.408,1261.519 1086.936,1268.463 1086.936,1282.352L1086.936,1381.519C1086.936,1394.852 1095.408,1401.519 1112.352,1401.519L1191.934,1401.519C1192.342,1401.504 1192.759,1401.496 1193.186,1401.496L1279.852,1401.496C1296.797,1401.496 1305.269,1395.424 1305.269,1381.535L1305.269,1282.323C1305.269,1268.712 1292.62,1261.535 1279.843,1261.535L1245.686,1261.535L1245.686,1324.852C1245.686,1334.852 1240.686,1339.852 1230.686,1339.852L1166.102,1339.852C1156.102,1339.852 1151.102,1334.852 1151.102,1324.852L1151.102,1261.519Z" style="fill:rgb(255,29,29);"/>
    </g>
</svg>
